HIERARCHY
ROOT Hip
{
	OFFSET 0 1.131 0.0052
	CHANNELS 6 Xposition Yposition Zposition Xrotation Yrotation Zrotation
	JOINT Abdomen
	{
		OFFSET 0 -0.047353 -0.05
		CHANNELS 3 Xrotation Zrotation Yrotation
		JOINT Chest
		{
			OFFSET 0 0.132153 0.007439
			CHANNELS 3 Xrotation Zrotation Yrotation
			JOINT Neck
			{
				OFFSET 0 0.3078 0.006161
				CHANNELS 3 Xrotation Zrotation Yrotation
				JOINT Head_comp
				{
					OFFSET 0 0.0884 0.013
					CHANNELS 3 Xrotation Yrotation Zrotation
					End Site
					{
						OFFSET -0 0.156 0.0624
					}
				}
			}
			JOINT Left_Collar
			{
				OFFSET 0.02282 0.250342 0.017193
				CHANNELS 2 Yrotation Zrotation
				JOINT Left_Shoulder
				{
					OFFSET 0.15421 0 0
					CHANNELS 3 Xrotation Yrotation Zrotation
					JOINT Left_Forearm
					{
						OFFSET 0.265212 0 0
						CHANNELS 2 Yrotation Xrotation
						JOINT Left_Hand
						{
							OFFSET 0.27571 0 0
							CHANNELS 2 Zrotation Yrotation
							JOINT L1ProxPhalanx
							{
								OFFSET 0.014142 0.001733 0.014142
								CHANNELS 3 Yrotation Zrotation Xrotation
								JOINT L1MidPhalanx
								{
									OFFSET 0.04 0 0
									CHANNELS 1 Zrotation
									JOINT L1DistPhalanx
									{
										OFFSET 0.035 0 0
										CHANNELS 1 Zrotation
										End Site
										{
											OFFSET 0.029 -0 -0
										}
									}
								}
							}
							JOINT L2ProxPhalanx
							{
								OFFSET 0.0821037 0.001578 0.0219996
								CHANNELS 2 Yrotation Zrotation
								JOINT L2MidPhalanx
								{
									OFFSET 0.04 0 0
									CHANNELS 1 Zrotation
									JOINT L2DistPhalanx
									{
										OFFSET 0.028 0 0
										CHANNELS 1 Zrotation
										End Site
										{
											OFFSET 0.02 -0 -0
										}
									}
								}
							}
							JOINT L3ProxPhalanx
							{
								OFFSET 0.083 0 0
								CHANNELS 2 Yrotation Zrotation
								JOINT L3MidPhalanx
								{
									OFFSET 0.053 0 0
									CHANNELS 1 Zrotation
									JOINT L3DistPhalanx
									{
										OFFSET 0.03 0 0
										CHANNELS 1 Zrotation
										End Site
										{
											OFFSET 0.023 -0 -0
										}
									}
								}
							}
							JOINT L4ProxPhalanx
							{
								OFFSET 0.077274 -0.000761 -0.0207055
								CHANNELS 2 Yrotation Zrotation
								JOINT L4MidPhalanx
								{
									OFFSET 0.05 0 0
									CHANNELS 1 Zrotation
									JOINT L4DistPhalanx
									{
										OFFSET 0.03 0 0
										CHANNELS 1 Zrotation
										End Site
										{
											OFFSET 0.023 -0 -0
										}
									}
								}
							}
							JOINT L5ProxPhalanx
							{
								OFFSET 0.0675499 -0.001644 -0.039
								CHANNELS 2 Yrotation Zrotation
								JOINT L5MidPhalanx
								{
									OFFSET 0.04 0 0
									CHANNELS 1 Zrotation
									JOINT L5DistPhalanx
									{
										OFFSET 0.021 0 0
										CHANNELS 1 Zrotation
										End Site
										{
											OFFSET 0.022 -0 -0
										}
									}
								}
							}
						}
					}
				}
			}
			JOINT Right_Collar
			{
				OFFSET -0.02282 0.250342 0.017193
				CHANNELS 2 Yrotation Zrotation
				JOINT Right_Shoulder
				{
					OFFSET -0.15421 0 0
					CHANNELS 3 Xrotation Yrotation Zrotation
					JOINT Right_Forearm
					{
						OFFSET -0.265212 0 0
						CHANNELS 2 Yrotation Xrotation
						JOINT Right_Hand
						{
							OFFSET -0.27571 3e-006 0
							CHANNELS 2 Zrotation Yrotation
							JOINT R1ProxPhalanx
							{
								OFFSET -0.014142 0.001733 0.014142
								CHANNELS 3 Yrotation Zrotation Xrotation
								JOINT R1MidPhalanx
								{
									OFFSET -0.04 0 0
									CHANNELS 1 Zrotation
									JOINT R1DistPhalanx
									{
										OFFSET -0.035 0 0
										CHANNELS 1 Zrotation
										End Site
										{
											OFFSET -0.029 -0 -0
										}
									}
								}
							}
							JOINT R2ProxPhalanx
							{
								OFFSET -0.0821037 0.001578 0.0219996
								CHANNELS 2 Yrotation Zrotation
								JOINT R2MidPhalanx
								{
									OFFSET -0.04 0 0
									CHANNELS 1 Zrotation
									JOINT R2DistPhalanx
									{
										OFFSET -0.028 0 0
										CHANNELS 1 Zrotation
										End Site
										{
											OFFSET -0.02 -0 -0
										}
									}
								}
							}
							JOINT R3ProxPhalanx
							{
								OFFSET -0.083 0 0
								CHANNELS 2 Yrotation Zrotation
								JOINT R3MidPhalanx
								{
									OFFSET -0.053 0 0
									CHANNELS 1 Zrotation
									JOINT R3DistPhalanx
									{
										OFFSET -0.03 0 0
										CHANNELS 1 Zrotation
										End Site
										{
											OFFSET -0.023 -0 -0
										}
									}
								}
							}
							JOINT R4ProxPhalanx
							{
								OFFSET -0.077274 -0.000761 -0.0207055
								CHANNELS 2 Yrotation Zrotation
								JOINT R4MidPhalanx
								{
									OFFSET -0.05 0 0
									CHANNELS 1 Zrotation
									JOINT R4DistPhalanx
									{
										OFFSET -0.03 0 0
										CHANNELS 1 Zrotation
										End Site
										{
											OFFSET -0.023 -0 -0
										}
									}
								}
							}
							JOINT R5ProxPhalanx
							{
								OFFSET -0.0675499 -0.001644 -0.039
								CHANNELS 2 Yrotation Zrotation
								JOINT R5MidPhalanx
								{
									OFFSET -0.04 0 0
									CHANNELS 1 Zrotation
									JOINT R5DistPhalanx
									{
										OFFSET -0.021 0 0
										CHANNELS 1 Zrotation
										End Site
										{
											OFFSET -0.022 -0 -0
										}
									}
								}
							}
						}
					}
				}
			}
		}
	}
	JOINT Left_Thigh
	{
		OFFSET 0.1118 -0.1612 -0.0442
		CHANNELS 3 Xrotation Zrotation Yrotation
		JOINT Left_Shin
		{
			OFFSET 0 -0.477856 0
			CHANNELS 1 Xrotation
			JOINT Left_Foot
			{
				OFFSET 0 -0.431952 0
				CHANNELS 2 Xrotation Zrotation
				JOINT Left_Toe
				{
					OFFSET 0 -0.0442 0.119
					CHANNELS 1 Xrotation
					End Site
					{
						OFFSET -0 -0 0.07
					}
				}
			}
		}
	}
	JOINT Right_Thigh
	{
		OFFSET -0.1118 -0.1612 -0.0442
		CHANNELS 3 Xrotation Zrotation Yrotation
		JOINT Right_Shin
		{
			OFFSET 0 -0.477856 0
			CHANNELS 1 Xrotation
			JOINT Right_Foot
			{
				OFFSET 0 -0.431952 0
				CHANNELS 2 Xrotation Zrotation
				JOINT Right_Toe
				{
					OFFSET 0 -0.0442 0.119
					CHANNELS 1 Xrotation
					End Site
					{
						OFFSET -0 -0 0.07
					}
				}
			}
		}
	}
}
MOTION
Frames: 10
Frame Time: 0.00998
-0.101453 -0.0619765 0.0619322 -2.32665e-013 -0.101179 0.0363733 0 0 0 0 0 0 0 0 0 0 0 0 0 0 -0 0 -0 0 0 0 0 -36.7832 -29.9624 77.4898 -4.76427 -12.2444 -6.63439 -16.4575 -31.3511 -13.5114 -0.647911 -24.507 -18.2419 -18.0941 9.02909 -22.0218 -38.2405 -19.3412 17.3445 -18.4185 -40.523 -37.4487 0 0 -0 0 -0 0 0 0 0 37.9386 28.008 73.698 26.2405 28.4472 13.118 18.2167 29.0248 19.6359 0 22.4358 32.6146 28.1246 -8.63175 30.7051 32.2053 23.7634 -7.83088 26.7354 35.1526 30.0193 -1.73021 -0.697303 0.122281 6.7156 -4.98668 0.664303 0 -1.9067 -0.697052 0.124433 7.03539 -5.13 0.664431 0 
-0.101453 -0.0619765 0.0619322 -2.32665e-013 -0.101179 0.0363733 0 0 0 0 0 0 0 0 0 0 0 0 0 0 -0 0 -0 0 0 0 0 -36.7832 -29.9624 77.4898 -4.76427 -12.2444 -6.63439 -16.4575 -31.3511 -13.5114 -0.647911 -24.507 -18.2419 -18.0941 9.02909 -22.0218 -38.2405 -19.3412 17.3445 -18.4185 -40.523 -37.4487 0 0 -0 0 -0 0 0 0 0 37.9386 28.008 73.698 26.2405 28.4472 13.118 18.2167 29.0248 19.6359 0 22.4358 32.6146 28.1246 -8.63175 30.7051 32.2053 23.7634 -7.83088 26.7354 35.1526 30.0193 -1.73021 -0.697303 0.122281 6.7156 -4.98668 0.664303 0 -1.9067 -0.697052 0.124433 7.03539 -5.13 0.664431 0 
-0.101565 -0.0619534 0.0612629 -1.2815e-007 -0.100753 0.0362921 -1.28623 -0.093623 -0.0285666 -1.28623 0.0382227 -0.0276756 -1.28623 0.045867 -0.0276753 0.702972 0.365906 0.0382304 0.0279809 -3.34717 29.0235 -13.5306 -70.3936 -79.8676 0.0179065 0.00417922 -0.00131254 -36.8574 -29.9413 77.4964 -4.88521 -12.2754 -6.61195 -16.5116 -31.3857 -13.5174 -0.645324 -24.537 -18.3289 -18.0937 8.99905 -22.0617 -38.2476 -19.3358 17.2992 -18.4407 -40.497 -37.3789 0.0258415 4.25356 29.5156 12.8449 69.5243 80.636 0.0243004 0.0105841 -0.00409729 38.0071 27.9928 73.7213 26.2756 28.4134 13.0697 18.2637 29.0687 19.6173 0 22.474 32.6442 28.0841 -8.60323 30.7102 32.2365 23.7404 -7.82356 26.7245 35.148 29.9792 -1.75973 -0.690079 0.122037 6.68874 -4.93029 0.657216 0 -1.93551 -0.689829 0.124162 7.00725 -5.07303 0.657343 0 
-0.101454 -0.0619753 0.0618842 -1.6424e-013 -0.101177 0.0363787 -1.2914 -0.0939411 -0.028697 -1.2914 0.0383749 -0.0277885 -1.2914 0.0460499 -0.0277885 0.705498 0.365335 0.0383749 0.0280933 -3.36062 30.4182 -11.7321 -67.8476 -82.3172 0.0179663 0.004196 -0.00131781 -36.7832 -29.9624 77.4898 -4.76427 -12.2444 -6.63439 -16.4575 -31.3511 -13.5114 -0.647911 -24.507 -18.2419 -18.0941 9.02909 -22.0218 -38.2405 -19.3412 17.3445 -18.4185 -40.523 -37.4487 0.0259452 4.27064 30.8602 11.0086 66.9945 83.0664 0.0243812 0.0106266 -0.00411374 37.9386 28.008 73.698 26.2405 28.4472 13.118 18.2167 29.0248 19.6359 0 22.4358 32.6146 28.1246 -8.63175 30.7051 32.2053 23.7634 -7.83088 26.7354 35.1526 30.0193 -1.73324 -0.697271 0.122315 6.7156 -4.98366 0.664272 0 -1.90973 -0.69702 0.124467 7.03539 -5.12697 0.6644 0 
-0.101453 -0.0619765 0.061931 4.6504e-013 -0.101179 0.0363735 -1.2914 -0.0939359 -0.0286987 -1.2914 0.0383749 -0.0277885 -1.2914 0.0460499 -0.0277885 0.705458 0.365301 0.0383749 0.0280933 -3.36062 30.4256 -11.7209 -67.8329 -82.3301 0.0179663 0.004196 -0.00131781 -36.7832 -29.9624 77.4898 -4.76427 -12.2444 -6.63439 -16.4575 -31.3511 -13.5114 -0.647911 -24.507 -18.2419 -18.0941 9.02909 -22.0218 -38.2405 -19.3412 17.3445 -18.4185 -40.523 -37.4487 0.0259452 4.27064 30.8673 10.9971 66.98 83.0791 0.0243812 0.0106266 -0.00411374 37.9386 28.008 73.698 26.2405 28.4472 13.118 18.2167 29.0248 19.6359 0 22.4358 32.6146 28.1246 -8.63175 30.7051 32.2053 23.7634 -7.83088 26.7354 35.1526 30.0193 -1.73029 -0.697328 0.122283 6.7156 -4.98661 0.664327 0 -1.90677 -0.697076 0.124434 7.03539 -5.12993 0.664456 0 
-0.101453 -0.0619765 0.0619318 -4.0906e-013 -0.101179 0.0363734 -1.2914 -0.0939358 -0.0286987 -1.2914 0.0383749 -0.0277885 -1.2914 0.0460499 -0.0277885 0.705457 0.365301 0.0383749 0.0280933 -3.36062 30.4256 -11.7209 -67.8329 -82.3301 0.0179663 0.004196 -0.00131781 -36.7832 -29.9624 77.4898 -4.76427 -12.2444 -6.63439 -16.4575 -31.3511 -13.5114 -0.647911 -24.507 -18.2419 -18.0941 9.02909 -22.0218 -38.2405 -19.3412 17.3445 -18.4185 -40.523 -37.4487 0.0259452 4.27064 30.8673 10.9971 66.98 83.0791 0.0243812 0.0106266 -0.00411374 37.9386 28.008 73.698 26.2405 28.4472 13.118 18.2167 29.0248 19.6359 0 22.4358 32.6146 28.1246 -8.63175 30.7051 32.2053 23.7634 -7.83088 26.7354 35.1526 30.0193 -1.73024 -0.697328 0.122282 6.7156 -4.98666 0.664328 0 -1.90673 -0.697077 0.124434 7.03539 -5.12997 0.664456 0 
-0.101453 -0.0619765 0.0619318 -5.557e-013 -0.101179 0.0363734 -1.2914 -0.0939358 -0.0286987 -1.2914 0.0383749 -0.0277885 -1.2914 0.0460499 -0.0277885 0.705456 0.365301 0.0383749 0.0280933 -3.36062 30.4256 -11.7209 -67.8329 -82.3301 0.0179663 0.004196 -0.00131781 -36.7832 -29.9624 77.4898 -4.76427 -12.2444 -6.63439 -16.4575 -31.3511 -13.5114 -0.647911 -24.507 -18.2419 -18.0941 9.02909 -22.0218 -38.2405 -19.3412 17.3445 -18.4185 -40.523 -37.4487 0.0259452 4.27064 30.8673 10.9971 66.98 83.0791 0.0243812 0.0106266 -0.00411374 37.9386 28.008 73.698 26.2405 28.4472 13.118 18.2167 29.0248 19.6359 0 22.4358 32.6146 28.1246 -8.63175 30.7051 32.2053 23.7634 -7.83088 26.7354 35.1526 30.0193 -1.73024 -0.697328 0.122282 6.7156 -4.98666 0.664328 0 -1.90673 -0.697077 0.124434 7.03539 -5.12997 0.664456 0 
-0.101453 -0.0619765 0.0619318 1.88536e-013 -0.101179 0.0363734 -1.2914 -0.0939358 -0.0286987 -1.2914 0.0383749 -0.0277885 -1.2914 0.0460499 -0.0277885 0.705456 0.365301 0.0383749 0.0280933 -3.36062 30.4256 -11.7209 -67.8329 -82.3301 0.0179663 0.004196 -0.00131781 -36.7832 -29.9624 77.4898 -4.76427 -12.2444 -6.63439 -16.4575 -31.3511 -13.5114 -0.647911 -24.507 -18.2419 -18.0941 9.02909 -22.0218 -38.2405 -19.3412 17.3445 -18.4185 -40.523 -37.4487 0.0259452 4.27064 30.8673 10.9971 66.98 83.0791 0.0243812 0.0106266 -0.00411374 37.9386 28.008 73.698 26.2405 28.4472 13.118 18.2167 29.0248 19.6359 0 22.4358 32.6146 28.1246 -8.63175 30.7051 32.2053 23.7634 -7.83088 26.7354 35.1526 30.0193 -1.73024 -0.697328 0.122282 6.7156 -4.98666 0.664328 0 -1.90673 -0.697077 0.124434 7.03539 -5.12997 0.664456 0 
-0.101453 -0.0619765 0.0619318 1.86413e-013 -0.101179 0.0363734 -1.2914 -0.0939358 -0.0286987 -1.2914 0.0383749 -0.0277885 -1.2914 0.0460499 -0.0277885 0.705456 0.365301 0.0383749 0.0280933 -3.36062 30.4256 -11.7209 -67.8329 -82.3301 0.0179663 0.004196 -0.00131781 -36.7832 -29.9624 77.4898 -4.76427 -12.2444 -6.63439 -16.4575 -31.3511 -13.5114 -0.647911 -24.507 -18.2419 -18.0941 9.02909 -22.0218 -38.2405 -19.3412 17.3445 -18.4185 -40.523 -37.4487 0.0259452 4.27064 30.8673 10.9971 66.98 83.0791 0.0243812 0.0106266 -0.00411374 37.9386 28.008 73.698 26.2405 28.4472 13.118 18.2167 29.0248 19.6359 0 22.4358 32.6146 28.1246 -8.63175 30.7051 32.2053 23.7634 -7.83088 26.7354 35.1526 30.0193 -1.73024 -0.697328 0.122282 6.7156 -4.98666 0.664328 0 -1.90673 -0.697077 0.124434 7.03539 -5.12997 0.664456 0 
-0.101453 -0.0619765 0.0619318 1.86206e-013 -0.101179 0.0363734 -1.2914 -0.0939358 -0.0286987 -1.2914 0.0383749 -0.0277885 -1.2914 0.0460499 -0.0277885 0.705456 0.365301 0.0383749 0.0280933 -3.36062 30.4256 -11.7209 -67.8329 -82.3301 0.0179663 0.004196 -0.00131781 -36.7832 -29.9624 77.4898 -4.76427 -12.2444 -6.63439 -16.4575 -31.3511 -13.5114 -0.647911 -24.507 -18.2419 -18.0941 9.02909 -22.0218 -38.2405 -19.3412 17.3445 -18.4185 -40.523 -37.4487 0.0259452 4.27064 30.8673 10.9971 66.98 83.0791 0.0243812 0.0106266 -0.00411374 37.9386 28.008 73.698 26.2405 28.4472 13.118 18.2167 29.0248 19.6359 0 22.4358 32.6146 28.1246 -8.63175 30.7051 32.2053 23.7634 -7.83088 26.7354 35.1526 30.0193 -1.73024 -0.697328 0.122282 6.7156 -4.98666 0.664328 0 -1.90673 -0.697077 0.124434 7.03539 -5.12997 0.664456 0 
